<svg width="26" height="26" viewBox="0 0 26 26" fill="none" xmlns="http://www.w3.org/2000/svg">
<path fill-rule="evenodd" clip-rule="evenodd" d="M20.2311 3.26325C21.7477 3.10833 22.999 4.33575 22.726 5.71158L22.3642 7.52833C21.4585 12.0881 21.5582 16.7681 22.6556 21.2921C22.9719 22.5953 21.8886 23.8325 20.4304 23.8325H5.59524C4.13707 23.8325 3.05374 22.5964 3.37007 21.2921C4.46532 16.7778 4.46532 12.0978 3.37007 7.5825L3.30507 7.31275C3.0104 6.09941 3.93124 4.92183 5.2789 4.78425L20.2311 3.26325ZM17.8878 9.74916C17.8878 9.15116 17.4025 8.66583 16.8045 8.66583C16.2065 8.66583 15.7212 9.15116 15.7212 9.74916C15.7212 10.3472 16.2065 10.8325 16.8045 10.8325C17.4025 10.8325 17.8878 10.3472 17.8878 9.74916ZM9.22115 8.66583C9.81915 8.66583 10.3045 9.15116 10.3045 9.74916C10.3045 10.3472 9.81915 10.8325 9.22115 10.8325C8.62315 10.8325 8.13782 10.3472 8.13782 9.74916C8.13782 9.15116 8.62315 8.66583 9.22115 8.66583ZM7.86699 12.9992C7.86699 15.8364 10.1756 18.145 13.0128 18.145C15.8501 18.145 18.1587 15.8375 18.1587 12.9992C18.1587 12.5507 17.7947 12.1867 17.3462 12.1867C16.8977 12.1867 16.5337 12.5507 16.5337 12.9992C16.5337 14.9405 14.9542 16.52 13.0128 16.52C11.0715 16.52 9.49199 14.9405 9.49199 12.9992C9.49199 12.5507 9.12799 12.1867 8.67949 12.1867C8.23099 12.1867 7.86699 12.5507 7.86699 12.9992Z" fill="#406B00"/>
</svg>
