<svg width="26" height="26" viewBox="0 0 26 26" fill="none" xmlns="http://www.w3.org/2000/svg">
<path fill-rule="evenodd" clip-rule="evenodd" d="M4.36396 8.27666C10.1035 8.79666 15.896 8.79666 21.6355 8.27666C22.5022 8.19757 23.2335 7.71657 23.5086 7.04274C23.9409 5.98757 23.9409 4.84574 23.5086 3.79057C23.2335 3.11674 22.5022 2.63466 21.6355 2.55666C15.896 2.03666 10.1035 2.03666 4.36396 2.55666C3.49837 2.63466 2.76604 3.11674 2.49087 3.79057C2.05862 4.84574 2.05862 5.98757 2.49087 7.04274C2.76604 7.71657 3.49729 8.19866 4.36396 8.27666ZM22.11 9.18232C22.2422 9.50516 22.3451 9.84749 22.3971 10.2126C22.8673 13.4918 22.8673 16.8404 22.3971 20.1197C22.1523 21.8292 20.9704 23.1487 19.4916 23.3632C15.181 23.9893 10.8195 23.9893 6.50787 23.3632C5.02912 23.1476 3.84721 21.8292 3.60237 20.1197C3.13221 16.8404 3.13221 13.4929 3.60237 10.2126C3.65546 9.84749 3.75837 9.50516 3.88946 9.18232C3.93676 9.19186 3.9829 9.20403 4.02905 9.2162C4.10867 9.23719 4.18832 9.2582 4.27404 9.26574C5.76471 9.40007 7.26946 9.49757 8.77529 9.56366C8.62904 10.0674 8.63229 10.6047 8.79587 11.1042C8.90637 11.4411 9.19887 11.6827 9.54554 11.7217C11.8411 11.9817 14.1584 11.9817 16.454 11.7217C16.8006 11.6816 17.0931 11.4411 17.2036 11.1042C17.3672 10.6047 17.3705 10.0674 17.2242 9.56366C18.73 9.49866 20.2348 9.40116 21.7255 9.26574C21.8096 9.2576 21.8881 9.23715 21.967 9.21661C22.0142 9.20434 22.0614 9.19205 22.11 9.18232Z" fill="#406B00"/>
</svg>
